<svg width="61" height="60" viewBox="0 0 61 60" fill="none" xmlns="http://www.w3.org/2000/svg">
<g clip-path="url(#clip0_117_3304)">
<path d="M56.0149 31.102V3.77976C56.0149 2.80502 55.2247 2.01477 54.2499 2.01477H6.9621C5.98736 2.01477 5.19711 2.80502 5.19711 3.77976V33.2801C4.34568 33.4042 3.51331 33.7347 2.77696 34.2814C0.455644 35.9274 -0.0933855 39.6111 1.85104 41.8828L9.80091 51.5205C14.7219 57.2799 19.9495 57.9855 27.7208 57.9855C34.3898 57.9855 37.3713 58.015 43.1835 56.6906L48.8429 55.337C49.7606 56.6185 51.2175 57.4486 52.8552 57.4486H55.6432C58.4133 57.4486 60.667 55.0745 60.667 52.1562V36.3785C60.6671 33.5921 58.6119 31.3032 56.0149 31.102ZM48.0817 34.7327L45.73 33.5383C41.8634 31.5866 37.3929 31.5143 33.4652 33.3404C32.3936 33.7619 30.0564 35.176 28.8441 35.1287H20.6837C17.9769 35.1287 15.7747 37.3308 15.7747 40.0377V41.3249C15.7595 41.3089 15.7436 41.2937 15.7287 41.2774L9.90128 34.9521C9.54864 34.5693 9.15245 34.249 8.72721 33.992V16.4811H23.1711V22.9511C23.1711 23.9258 23.9613 24.7161 24.9361 24.7161H36.0732C37.048 24.7161 37.8382 23.9258 37.8382 22.9511V16.4811H52.4851V31.1019C50.4229 31.2612 48.7033 32.7365 48.0817 34.7327ZM26.7009 16.4811H34.3081V21.1861H26.7009V16.4811ZM52.485 12.9511H37.8382V5.54475H52.4851V12.9511H52.485ZM34.3083 5.54475V12.9512H26.701V5.54475H34.3083ZM23.1709 5.54475V12.9512H8.72709V5.54475H23.1709ZM42.3643 53.2569C36.9952 54.4866 33.7616 54.4368 27.7842 54.4368C20.4889 54.4368 16.9639 54.3189 12.5242 49.2741L4.57431 39.6365C3.1915 37.8358 5.69613 35.7102 7.3051 37.3436L13.1325 43.6691C14.6726 45.2942 16.6107 46.1886 18.9994 46.2412H35.1559C36.1307 46.2412 36.9209 45.4509 36.9209 44.4762C36.9209 43.5014 36.1307 42.7112 35.1559 42.7112H19.3046V40.0375C19.3046 39.2771 19.9231 38.6584 20.6836 38.6584H28.844C30.6824 38.7901 33.3359 37.255 34.9533 36.5411C37.895 35.1734 41.2433 35.2275 44.1354 36.6873L47.8317 38.5648V51.949L42.3643 53.2569ZM57.1371 52.1561C57.1371 53.1279 56.467 53.9185 55.6433 53.9185H52.8554C52.0317 53.9185 51.3617 53.1279 51.3617 52.1561V36.3785C51.3617 35.4067 52.0318 34.616 52.8554 34.616H55.6433C56.467 34.616 57.1371 35.4066 57.1371 36.3785V52.1561Z" fill="#242424"/>
</g>
<defs>
<clipPath id="clip0_117_3304">
<rect width="60" height="60" fill="white" transform="translate(0.666992)"/>
</clipPath>
</defs>
</svg>
